<svg id="visual" viewBox="0 0 1200 540" width="1200" height="540" xmlns="http://www.w3.org/2000/svg" xmlns:xlink="http://www.w3.org/1999/xlink" version="1.1"><path d="M0 317L28.5 319.2C57 321.3 114 325.7 171.2 326.7C228.3 327.7 285.7 325.3 342.8 333.3C400 341.3 457 359.7 514.2 360.7C571.3 361.7 628.7 345.3 685.8 339.2C743 333 800 337 857.2 335.5C914.3 334 971.7 327 1028.8 324C1086 321 1143 322 1171.5 322.5L1200 323L1200 541L1171.5 541C1143 541 1086 541 1028.8 541C971.7 541 914.3 541 857.2 541C800 541 743 541 685.8 541C628.7 541 571.3 541 514.2 541C457 541 400 541 342.8 541C285.7 541 228.3 541 171.2 541C114 541 57 541 28.5 541L0 541Z" fill="#7d60a6"></path><path d="M0 427L28.5 415.3C57 403.7 114 380.3 171.2 380C228.3 379.7 285.7 402.3 342.8 406.5C400 410.7 457 396.3 514.2 386.3C571.3 376.3 628.7 370.7 685.8 372.8C743 375 800 385 857.2 384C914.3 383 971.7 371 1028.8 369.7C1086 368.3 1143 377.7 1171.5 382.3L1200 387L1200 541L1171.5 541C1143 541 1086 541 1028.8 541C971.7 541 914.3 541 857.2 541C800 541 743 541 685.8 541C628.7 541 571.3 541 514.2 541C457 541 400 541 342.8 541C285.7 541 228.3 541 171.2 541C114 541 57 541 28.5 541L0 541Z" fill="#734b91"></path><path d="M0 393L28.5 401.3C57 409.7 114 426.3 171.2 431.7C228.3 437 285.7 431 342.8 428.2C400 425.3 457 425.7 514.2 430.7C571.3 435.7 628.7 445.3 685.8 441.5C743 437.7 800 420.3 857.2 419.3C914.3 418.3 971.7 433.7 1028.8 439.3C1086 445 1143 441 1171.5 439L1200 437L1200 541L1171.5 541C1143 541 1086 541 1028.8 541C971.7 541 914.3 541 857.2 541C800 541 743 541 685.8 541C628.7 541 571.3 541 514.2 541C457 541 400 541 342.8 541C285.7 541 228.3 541 171.2 541C114 541 57 541 28.5 541L0 541Z" fill="#68367b"></path><path d="M0 485L28.5 481.8C57 478.7 114 472.3 171.2 468C228.3 463.7 285.7 461.3 342.8 456.7C400 452 457 445 514.2 445.8C571.3 446.7 628.7 455.3 685.8 462.2C743 469 800 474 857.2 472C914.3 470 971.7 461 1028.8 457.2C1086 453.3 1143 454.7 1171.5 455.3L1200 456L1200 541L1171.5 541C1143 541 1086 541 1028.8 541C971.7 541 914.3 541 857.2 541C800 541 743 541 685.8 541C628.7 541 571.3 541 514.2 541C457 541 400 541 342.8 541C285.7 541 228.3 541 171.2 541C114 541 57 541 28.5 541L0 541Z" fill="#5d1f65"></path><path d="M0 508L28.5 508.5C57 509 114 510 171.2 504.8C228.3 499.7 285.7 488.3 342.8 483.8C400 479.3 457 481.7 514.2 481.5C571.3 481.3 628.7 478.7 685.8 478.7C743 478.7 800 481.3 857.2 488C914.3 494.7 971.7 505.3 1028.8 507C1086 508.7 1143 501.3 1171.5 497.7L1200 494L1200 541L1171.5 541C1143 541 1086 541 1028.8 541C971.7 541 914.3 541 857.2 541C800 541 743 541 685.8 541C628.7 541 571.3 541 514.2 541C457 541 400 541 342.8 541C285.7 541 228.3 541 171.2 541C114 541 57 541 28.5 541L0 541Z" fill="#52004f"></path></svg>