<svg width="184" height="284" viewBox="0 0 184 284" fill="none" xmlns="http://www.w3.org/2000/svg">
<g clip-path="url(#clip0_205_54)">
<path d="M128.315 107.47H74.4526C74.4526 107.47 87.8142 101.207 97.8375 99.9541C97.8375 99.9541 110.779 74.4853 92.8267 55.6998C74.8741 36.9127 83.2232 23.9659 87.3994 16.0332C87.3994 16.0332 75.3628 38.3686 97.7804 55.0886C116.007 68.6853 109.948 99.9575 109.948 99.9575C109.948 99.9575 123.721 103.292 128.315 107.47Z" fill="#7D60A6"/>
<path d="M102.272 48.6169C103.945 44.2442 105.063 40.0747 110.074 38.9244C114.255 37.9639 118.581 38.8421 122.658 37.932C120.707 42.4978 119.899 47.6917 115.449 50.4355C111.3 52.9946 106.647 50.2894 102.481 48.6958" fill="#7D60A6"/>
<path d="M119.214 56.6134C122.101 54.244 124.53 51.7957 128.416 52.9963C131.657 53.9955 134.263 56.3346 137.415 57.3254C134.257 59.7166 131.634 63.0012 127.501 63.1338C123.64 63.253 121.538 59.5235 119.325 56.7528" fill="#7D60A6"/>
<path d="M119.214 22.3858C119.39 18.6546 119.201 15.2138 122.697 13.1333C125.612 11.3969 129.096 11.0309 131.943 9.35669C131.602 13.3029 132.28 17.4506 129.603 20.6058C127.105 23.5529 122.928 22.6074 119.39 22.3959" fill="#7D60A6"/>
<path d="M94.0391 34.4358C92.019 28.6862 89.6244 23.6032 93.6327 18.238C96.9777 13.7646 102.019 10.9972 105.302 6.65979C107.204 12.8427 110.776 18.678 108.663 25.1531C106.695 31.1899 99.7955 32.4157 94.3145 34.3418" fill="#7D60A6"/>
<path d="M75.8246 43.675C71.1933 47.6211 67.3159 51.6748 60.8526 49.8679C55.4589 48.3617 51.0459 44.664 45.8051 43.1695C50.8864 39.1797 55.0358 33.7608 61.8484 33.4015C68.1975 33.069 71.8498 39.047 75.6365 43.455" fill="#7D60A6"/>
<path d="M69.2336 24.2581C65.7374 23.9827 62.4965 24.0616 60.5923 20.6897C59.0038 17.8804 58.7032 14.5689 57.17 11.8251C60.8727 12.2634 64.7753 11.7378 67.7055 14.3641C70.4376 16.814 69.4939 20.7485 69.2487 24.0935" fill="#7D60A6"/>
<path d="M81.6162 16.7906C78.7195 14.8091 75.8733 13.2642 75.9001 9.3919C75.9236 6.16443 77.3107 3.14351 77.3493 0C80.34 2.22329 83.9873 3.71444 85.2215 7.4524C86.3667 10.9368 83.591 13.8771 81.7119 16.6545" fill="#7D60A6"/>
<path d="M83.774 55.4866C84.9914 61.4411 86.6673 66.7861 81.9672 71.5836C78.0512 75.5852 72.6894 77.6758 68.8574 81.5498C67.818 75.1805 65.0842 68.9422 68.0531 62.7996C70.8221 57.0751 77.8127 56.7477 83.4902 55.547" fill="#7D60A6"/>
<path d="M0.0760556 248.259L0 125.506H39.8521C51.6407 125.506 63.2774 129.613 71.7198 138.055C80.1622 146.498 83.5848 154.407 83.5848 166.196V169.999C83.5848 179.126 80.9988 185.819 75.8269 193.12C70.655 200.422 66.3199 202.551 58.258 205.594L85.9426 248.261H55.9764L24.641 200.344V248.261H0.0747665L0.0760556 248.259ZM24.5664 184.525L42.1354 184.601C47.2312 184.601 49.8172 183.308 53.3916 179.733C56.966 176.159 58.2593 172.051 58.2593 166.955C58.2593 161.936 56.9663 158.589 53.3916 154.939C49.817 151.288 43.4282 149.995 38.3324 149.995H24.566V184.525L24.5664 184.525ZM97.3523 125.658H121.919V174.716H158.654V125.658H183.22V248.259H158.654V199.202H121.919V248.259H97.3523V125.658Z" fill="#7D60A6"/>
<path d="M12.6646 257.766L12.649 257.828C14.3916 257.828 16.0253 258.155 17.5657 258.824C19.106 259.493 20.4596 260.396 21.6266 261.531L18.048 265.11C16.5388 263.616 14.7496 262.869 12.6802 262.869C10.5798 262.869 8.79048 263.616 7.31236 265.11C5.83424 266.604 5.08742 268.393 5.08742 270.478C5.08742 272.578 5.83424 274.367 7.31236 275.846C8.79048 277.324 10.5798 278.071 12.6802 278.071C14.7806 278.071 16.5699 277.324 18.0635 275.83L21.6421 279.409C20.4752 280.56 19.1215 281.462 17.5812 282.131C16.0409 282.801 14.4072 283.127 12.6646 283.127C9.17939 283.127 6.19208 281.882 3.7186 279.409C1.24511 276.935 0 273.947 0 270.463C0 266.978 1.24471 263.99 3.7186 261.501C6.19248 259.011 9.17979 257.767 12.6646 257.767L12.6646 257.766ZM35.5361 257.766C39.0213 257.766 42.0086 259.011 44.4981 261.5C46.9875 263.99 48.2322 266.977 48.2322 270.462C48.2322 273.947 46.9875 276.935 44.4981 279.408C42.0086 281.882 39.0213 283.127 35.5361 283.127C32.051 283.127 29.0637 281.882 26.5902 279.408C24.1167 276.934 22.8716 273.947 22.8716 270.462C22.8716 266.977 24.1163 263.99 26.5902 261.5C29.0641 259.011 32.0514 257.766 35.5361 257.766V257.766ZM35.5361 262.823C33.4357 262.823 31.6464 263.57 30.1683 265.064C28.6902 266.557 27.9434 268.346 27.9434 270.431C27.9434 272.532 28.6902 274.321 30.1683 275.799C31.6464 277.277 33.4357 278.024 35.5361 278.024C37.621 278.024 39.4103 277.277 40.904 275.799C42.3976 274.321 43.1445 272.532 43.1445 270.431C43.1445 268.346 42.3976 266.557 40.904 265.064C39.4103 263.57 37.621 262.823 35.5361 262.823ZM57.5206 278.024L57.5051 277.993C58.8898 277.993 60.0412 276.842 60.0412 275.457C60.0412 274.383 59.6211 273.699 58.7653 273.388C56.9605 272.719 57.3961 272.874 55.6379 272.267C53.7865 271.629 52.0749 270.369 50.9236 268.798C50.239 267.864 49.8967 266.713 49.8967 265.328C49.8967 263.243 50.6435 261.454 52.1371 259.96C53.6308 258.467 55.4201 257.72 57.5205 257.72C59.6054 257.72 61.3947 258.467 62.8883 259.96C64.382 261.454 65.1288 263.243 65.1288 265.328H60.0721C60.0721 263.959 58.9208 262.807 57.5516 262.807C56.1668 262.807 55.0155 263.959 55.0155 265.344C55.0155 266.246 55.3733 266.931 56.1046 267.397C57.5983 268.362 57.4271 268.175 59.2164 268.704C61.1457 269.264 62.8883 270.462 64.0864 272.003C64.7865 272.905 65.1443 274.072 65.1443 275.488C65.1443 277.588 64.3975 279.378 62.9039 280.871C61.4102 282.365 59.6209 283.112 57.536 283.112C55.4356 283.112 53.6463 282.365 52.1527 280.871C50.659 279.378 49.9122 277.588 49.9122 275.488H54.9844C54.9844 276.888 56.1202 278.024 57.5205 278.024L57.5206 278.024ZM67.4471 257.424L79.6768 274.197L91.9064 257.424V282.972H86.8809V272.625L79.6771 282.567L72.4733 272.625V282.972H67.4478V257.424H67.4471ZM94.3951 257.891H109.441V262.901H99.421V267.927H106.936V272.937H99.421V277.947H109.441V282.972H99.421H94.3954V257.892L94.3951 257.891ZM117.733 257.891H122.759H129.029V262.901H122.759V282.972H117.733V262.901H111.463V257.891H117.733V257.891ZM131.207 282.972V257.891H136.233V282.972H131.207ZM150.765 257.766L150.75 257.828C152.492 257.828 154.126 258.155 155.666 258.824C157.207 259.493 158.56 260.396 159.727 261.531L156.149 265.11C154.639 263.616 152.85 262.869 150.781 262.869C148.68 262.869 146.891 263.616 145.413 265.11C143.935 266.604 143.188 268.393 143.188 270.478C143.188 272.578 143.935 274.367 145.413 275.846C146.891 277.324 148.68 278.071 150.781 278.071C152.881 278.071 154.67 277.324 156.164 275.83L159.743 279.409C158.576 280.56 157.222 281.462 155.682 282.131C154.141 282.801 152.508 283.127 150.765 283.127C147.28 283.127 144.293 281.882 141.819 279.409C139.346 276.935 138.101 273.947 138.101 270.463C138.101 266.978 139.345 263.99 141.819 261.501C144.293 259.011 147.28 257.767 150.765 257.767L150.765 257.766ZM169.638 274.679H174.072L171.863 269.467L169.638 274.679ZM167.584 279.113L167.553 279.098C166.993 280.373 166.417 281.634 165.841 282.91H160.443L171.816 257.424L183.22 282.91H177.806C177.246 281.649 176.685 280.373 176.125 279.113H167.583L167.584 279.113Z" fill="#7D60A6"/>
</g>
<defs>
<clipPath id="clip0_205_54">
<rect width="183.22" height="283.125" fill="white"/>
</clipPath>
</defs>
</svg>
